<svg width="17" height="17" viewBox="0 0 17 17" fill="none" xmlns="http://www.w3.org/2000/svg">
<path d="M14.3333 1C15.2538 1 16 1.73597 16 2.64383L16 5.44994C16 6.3578 15.2538 7.09377 14.3333 7.09377H11.8333C10.9129 7.09377 10.1667 6.3578 10.1667 5.44994L10.1667 2.64383C10.1667 1.73597 10.9129 1 11.8333 1L14.3333 1Z" stroke="white" stroke-width="2" stroke-linecap="round" stroke-linejoin="round"/>
<path d="M2.66667 1C1.74619 1 0.999999 1.73597 0.999999 2.64383L1.00001 5.44994C1.00001 6.3578 1.7462 7.09377 2.66667 7.09377H5.16667C6.08715 7.09377 6.83334 6.3578 6.83334 5.44994L6.83333 2.64383C6.83333 1.73597 6.08714 1 5.16667 1L2.66667 1Z" stroke="white" stroke-width="2" stroke-linecap="round" stroke-linejoin="round"/>
<path d="M14.3333 9.90626C15.2538 9.90626 16 10.6422 16 11.5501V14.3562C16 15.264 15.2538 16 14.3333 16H11.8333C10.9129 16 10.1667 15.264 10.1667 14.3562L10.1667 11.5501C10.1667 10.6422 10.9129 9.90626 11.8333 9.90626H14.3333Z" stroke="white" stroke-width="2" stroke-linecap="round" stroke-linejoin="round"/>
<path d="M2.66667 9.90626C1.7462 9.90626 1.00001 10.6422 1.00001 11.5501L1.00001 14.3562C1.00001 15.264 1.7462 16 2.66668 16H5.16667C6.08715 16 6.83334 15.264 6.83334 14.3562L6.83334 11.5501C6.83334 10.6422 6.08715 9.90626 5.16667 9.90626H2.66667Z" stroke="white" stroke-width="2" stroke-linecap="round" stroke-linejoin="round"/>
</svg>
